<svg xmlns="http://www.w3.org/2000/svg" viewBox="0 0 300 300" xml:space="preserve"><path fill="#E5E5E4" d="m106.958 143.695-59.181 46.309v89.119h118.362v-89.119z"/><circle fill="#7FD3B9" cx="106.958" cy="225.322" r="37.661"/><path fill="#BBEAD9" d="M80.057 225.322c0-18.967 14.039-34.619 32.281-37.235-1.76-.252-3.547-.426-5.38-.426-20.801 0-37.661 16.86-37.661 37.661s16.86 37.661 37.661 37.661c1.833 0 3.62-.173 5.38-.426-18.242-2.617-32.281-18.269-32.281-37.235z"/><path fill="#FFDA88" d="M121.06 232.662c0-2.864-.836-5.086-2.496-6.699-1.676-1.608-3.935-2.926-6.825-3.951-2.89-1.035-4.66-1.792-5.343-2.286-.667-.494-.993-1.287-.993-2.375 0-.673.284-1.251.862-1.713.583-.473 1.271-.693 2.086-.693 1.629 0 3.389.982 5.28 2.963l6.526-4.141c-2.464-2.616-5.128-4.256-7.996-4.959.016-.137.084-.268.084-.405a4.362 4.362 0 0 0-1.287-3.074c-1.624-1.534-4.272-1.618-6.069.079-.757.773-1.187 1.881-1.187 2.995 0 .247.095.478.137.714-1.486.473-2.821 1.172-3.967 2.107-2.327 1.876-3.473 4.298-3.473 7.256 0 4.913 3.237 8.459 9.688 10.64 1.65.546 2.553.909 2.706 1.103.363 0 .94.231 1.718.715.777.484 1.161 1.182 1.161 2.112 0 .731-.342 1.377-1.014 1.949a3.436 3.436 0 0 1-2.285.851c-1.886 0-3.689-1.56-5.448-4.708l-7.766 3.651c1.65 2.837 3.657 4.939 6.027 6.316.856.504 1.718.814 2.585 1.129-.021.105-.068.22-.068.331 0 1.108.431 2.222 1.277 3.068.773.783 1.871 1.203 2.99 1.203 1.114 0 2.265-.42 3.037-1.287a4.033 4.033 0 0 0 1.334-2.984v-.021c0-.493 3.515-1.245 5.017-2.474 2.499-2.053 3.702-4.534 3.702-7.412z"/><path fill="#7FD3B9" d="m176.899 198.421-69.941-54.726-69.941 54.726-16.141-16.14 86.082-69.017 86.082 69.017z"/><path fill="#9AD7D2" d="M166.139 20.877v139.836l26.901 21.568-16.141 16.14-10.76-8.417v19.177h86.082V20.877z"/><path fill="#FE6F80" d="M166.139 225.322h96.842v53.801h-96.842z"/><path fill="#7FD3B9" d="M166.139 209.181h112.982v16.14H166.139z"/><path fill="#E5E5E4" d="M139.239 20.877v118.268l20.249 16.235 6.651 5.333V20.877z"/><path fill="#FE6F80" d="M139.239 30.371 74.677 53.158v85.987l32.281-25.881 32.281 25.881z"/><path fill="#FFDA88" d="M236.081 143.102a6.899 6.899 0 0 1-6.898 6.898h-40.004a6.899 6.899 0 0 1-6.898-6.898v-7.724a6.899 6.899 0 0 1 6.898-6.898h40.004a6.899 6.899 0 0 1 6.898 6.898v7.724z"/><path fill="#FFE2A9" d="M193.04 143.102v-7.724a6.899 6.899 0 0 1 6.898-6.898h-10.76a6.899 6.899 0 0 0-6.898 6.898v7.724a6.899 6.899 0 0 0 6.898 6.898h10.76a6.899 6.899 0 0 1-6.898-6.898z"/><path fill="#FFC67B" d="M198.42 128.48h5.38V150h-5.38zM214.56 128.48h5.38V150h-5.38z"/><path fill="#FFDA88" d="M236.081 100.061a6.899 6.899 0 0 1-6.898 6.898h-40.004a6.899 6.899 0 0 1-6.898-6.898v-7.724a6.899 6.899 0 0 1 6.898-6.898h40.004a6.899 6.899 0 0 1 6.898 6.898v7.724z"/><path fill="#FFE2A9" d="M193.04 100.061v-7.724a6.899 6.899 0 0 1 6.898-6.898h-10.76a6.899 6.899 0 0 0-6.898 6.898v7.724a6.899 6.899 0 0 0 6.898 6.898h10.76a6.899 6.899 0 0 1-6.898-6.898z"/><path fill="#FFC67B" d="M198.42 85.439h5.38v21.52h-5.38zM214.56 85.439h5.38v21.52h-5.38z"/><path fill="#FFDA88" d="M236.081 57.02a6.899 6.899 0 0 1-6.898 6.898h-40.004a6.899 6.899 0 0 1-6.898-6.898v-7.724a6.899 6.899 0 0 1 6.898-6.898h40.004a6.899 6.899 0 0 1 6.898 6.898v7.724z"/><path fill="#FFE2A9" d="M193.04 57.02v-7.724a6.899 6.899 0 0 1 6.898-6.898h-10.76a6.899 6.899 0 0 0-6.898 6.898v7.724a6.899 6.899 0 0 0 6.898 6.898h10.76a6.899 6.899 0 0 1-6.898-6.898z"/><path fill="#FFC67B" d="M198.42 42.398h5.38v21.521h-5.38zM214.56 42.398h5.38v21.521h-5.38z"/><path fill="#FFA1AA" d="m85.438 49.359-10.761 3.799v85.987l10.761-8.627z"/><path fill="#EFEFEF" d="m58.537 181.582-10.76 8.422v89.119h10.76z"/><path fill="#FFA1AA" d="M166.139 225.322h10.76v53.801h-10.76z"/><path fill="#BBEAD9" d="M166.139 209.181h10.76v16.14h-10.76zM58.537 152.086l-37.661 30.195 16.141 16.14 21.52-16.839z"/><path fill="#EFEFEF" d="M149.999 20.877h-10.76v118.268l10.76 8.627z"/><g><path fill="#161616" d="M106.958 268.362c-23.732 0-43.041-19.309-43.041-43.041s19.309-43.041 43.041-43.041 43.041 19.309 43.041 43.041-19.309 43.041-43.041 43.041zm0-75.321c-17.801 0-32.281 14.48-32.281 32.281s14.48 32.281 32.281 32.281 32.281-14.48 32.281-32.281-14.48-32.281-32.281-32.281z"/><path fill="#161616" d="M121.06 232.662c0-2.864-.836-5.086-2.496-6.699-1.676-1.608-3.935-2.926-6.825-3.951-2.89-1.035-4.66-1.792-5.343-2.286-.667-.494-.993-1.287-.993-2.375 0-.673.284-1.251.862-1.713.583-.473 1.271-.693 2.086-.693 1.629 0 3.389.982 5.28 2.963l6.526-4.141c-2.464-2.616-5.128-4.256-7.996-4.959.016-.137.084-.268.084-.405a4.362 4.362 0 0 0-1.287-3.074c-1.624-1.534-4.272-1.618-6.069.079-.757.773-1.187 1.881-1.187 2.995 0 .247.095.478.137.714-1.486.473-2.821 1.172-3.967 2.107-2.327 1.876-3.473 4.298-3.473 7.256 0 4.913 3.237 8.459 9.688 10.64 1.65.546 2.553.909 2.706 1.103.363 0 .94.231 1.718.715.777.484 1.161 1.182 1.161 2.112 0 .731-.342 1.377-1.014 1.949a3.436 3.436 0 0 1-2.285.851c-1.886 0-3.689-1.56-5.448-4.708l-7.766 3.651c1.65 2.837 3.657 4.939 6.027 6.316.856.504 1.718.814 2.585 1.129-.021.105-.068.22-.068.331 0 1.108.431 2.222 1.277 3.068.773.783 1.871 1.203 2.99 1.203 1.114 0 2.265-.42 3.037-1.287a4.033 4.033 0 0 0 1.334-2.984v-.021c0-.493 3.515-1.245 5.017-2.474 2.499-2.053 3.702-4.534 3.702-7.412z"/><path fill="#161616" d="M176.899 203.801a5.358 5.358 0 0 1-3.315-1.145l-66.626-52.13-66.626 52.13a5.367 5.367 0 0 1-7.119-.431l-16.14-16.14a5.372 5.372 0 0 1-1.566-4.098 5.357 5.357 0 0 1 2.002-3.904l86.082-69.017a5.39 5.39 0 0 1 6.736 0l86.082 69.017a5.357 5.357 0 0 1 2.002 3.904 5.368 5.368 0 0 1-1.566 4.098l-16.14 16.14a5.376 5.376 0 0 1-3.806 1.576zm-69.941-65.486c1.172 0 2.343.383 3.315 1.145l66.19 51.789 8.527-8.527-78.033-62.565-78.033 62.565 8.527 8.527 66.19-51.789a5.382 5.382 0 0 1 3.317-1.145z"/><path fill="#161616" d="M252.221 214.561h-86.082a5.377 5.377 0 0 1-5.38-5.38v-19.177a5.384 5.384 0 0 1 3.021-4.839 5.416 5.416 0 0 1 5.674.599l7.009 5.485 8.527-8.527-22.219-17.811a5.38 5.38 0 0 1-2.012-4.198V20.877a5.377 5.377 0 0 1 5.38-5.38h86.082a5.377 5.377 0 0 1 5.38 5.38v188.304a5.377 5.377 0 0 1-5.38 5.38zm-75.301-10.76h69.92V26.257h-75.322v131.876l24.888 19.95a5.357 5.357 0 0 1 2.002 3.904 5.368 5.368 0 0 1-1.566 4.098l-16.14 16.14a5.358 5.358 0 0 1-3.782 1.576zm-5.401 0h5.354a5.39 5.39 0 0 1-3.289-1.14l-2.065-1.618v2.758z"/><path fill="#161616" d="M166.139 284.503H47.777a5.377 5.377 0 0 1-5.38-5.38v-89.119c0-1.655.762-3.215 2.065-4.235l59.181-46.309a5.38 5.38 0 0 1 6.631 0l59.181 46.309a5.375 5.375 0 0 1 2.065 4.235v89.119a5.379 5.379 0 0 1-5.381 5.38zM53.157 273.742h107.602v-81.117l-53.801-42.1-53.801 42.1v81.117z"/><path fill="#161616" d="M279.121 230.702H166.139a5.377 5.377 0 0 1-5.38-5.38v-16.14a5.377 5.377 0 0 1 5.38-5.38h112.982a5.377 5.377 0 0 1 5.38 5.38v16.14a5.377 5.377 0 0 1-5.38 5.38zm-107.602-10.761h102.222v-5.38H171.519v5.38zM166.139 166.093a5.401 5.401 0 0 1-3.368-1.182l-26.901-21.568a5.38 5.38 0 0 1-2.012-4.198V20.877a5.377 5.377 0 0 1 5.38-5.38h26.901a5.377 5.377 0 0 1 5.38 5.38v139.836a5.374 5.374 0 0 1-3.053 4.849 5.33 5.33 0 0 1-2.327.531zm-21.52-29.527 16.14 12.941V26.257h-16.14v110.309zM229.182 69.298h-40.004c-6.772 0-12.279-5.506-12.279-12.279v-7.723c0-6.772 5.506-12.279 12.279-12.279h40.004c6.772 0 12.279 5.506 12.279 12.279v7.723c0 6.773-5.507 12.279-12.279 12.279zm-40.004-21.52c-.835 0-1.518.683-1.518 1.518v7.723c0 .835.683 1.518 1.518 1.518h40.004c.835 0 1.518-.683 1.518-1.518v-7.723c0-.835-.683-1.518-1.518-1.518h-40.004z"/><path fill="#161616" d="M198.42 42.398h5.38v21.521h-5.38zM214.56 42.398h5.38v21.521h-5.38zM229.182 112.339h-40.004c-6.772 0-12.279-5.506-12.279-12.279v-7.723c0-6.772 5.506-12.279 12.279-12.279h40.004c6.772 0 12.279 5.506 12.279 12.279v7.723c0 6.773-5.507 12.279-12.279 12.279zm-40.004-21.52c-.835 0-1.518.683-1.518 1.518v7.723c0 .835.683 1.518 1.518 1.518h40.004c.835 0 1.518-.683 1.518-1.518v-7.723c0-.835-.683-1.518-1.518-1.518h-40.004z"/><path fill="#161616" d="M198.42 85.439h5.38v21.52h-5.38zM214.56 85.439h5.38v21.52h-5.38zM229.182 155.38h-40.004c-6.772 0-12.279-5.506-12.279-12.279v-7.723c0-6.772 5.506-12.279 12.279-12.279h40.004c6.772 0 12.279 5.506 12.279 12.279v7.723c0 6.773-5.507 12.279-12.279 12.279zm-40.004-21.52c-.835 0-1.518.683-1.518 1.518v7.723c0 .835.683 1.518 1.518 1.518h40.004c.835 0 1.518-.683 1.518-1.518v-7.723c0-.835-.683-1.518-1.518-1.518h-40.004z"/><path fill="#161616" d="M198.42 128.48h5.38V150h-5.38zM214.56 128.48h5.38V150h-5.38zM262.981 284.503H203.8a5.377 5.377 0 0 1-5.38-5.38 5.377 5.377 0 0 1 5.38-5.38h53.801v-43.041h-86.082v43.041h10.76a5.377 5.377 0 0 1 5.38 5.38 5.377 5.377 0 0 1-5.38 5.38h-16.14a5.377 5.377 0 0 1-5.38-5.38v-53.801a5.377 5.377 0 0 1 5.38-5.38h96.842a5.377 5.377 0 0 1 5.38 5.38v53.801a5.377 5.377 0 0 1-5.38 5.38zM139.239 144.525a5.41 5.41 0 0 1-3.368-1.182l-28.913-23.186-28.913 23.186a5.384 5.384 0 0 1-8.748-4.198V90.819a5.377 5.377 0 0 1 5.38-5.38 5.377 5.377 0 0 1 5.38 5.38v37.12l23.533-18.872a5.39 5.39 0 0 1 6.736 0l23.533 18.872V37.974L80.057 56.962v12.337a5.377 5.377 0 0 1-5.38 5.38 5.377 5.377 0 0 1-5.38-5.38v-16.14c0-2.28 1.44-4.313 3.588-5.075l64.561-22.787a5.404 5.404 0 0 1 4.897.683 5.376 5.376 0 0 1 2.275 4.392v108.774a5.377 5.377 0 0 1-5.379 5.379z"/></g></svg>